<?xml version="1.0" standalone="no"?>
<!DOCTYPE svg PUBLIC "-//W3C//DTD SVG 20010904//EN"
 "http://www.w3.org/TR/2001/REC-SVG-20010904/DTD/svg10.dtd">
<svg version="1.0" xmlns="http://www.w3.org/2000/svg"
 width="512.000000pt" height="512.000000pt" viewBox="0 0 512.000000 512.000000"
 preserveAspectRatio="xMidYMid meet">
<metadata>
Created by potrace 1.11, written by Peter Selinger 2001-2013
</metadata>
<g transform="translate(0.000000,512.000000) scale(0.100000,-0.100000)"
fill="#000000" stroke="none">
<path d="M2443 4695 c-104 -37 -156 -84 -203 -179 -49 -100 -46 -230 8 -329
66 -120 69 -129 71 -202 l2 -72 -43 -7 c-123 -20 -357 -118 -481 -201 -28 -19
-54 -32 -59 -29 -16 10 -97 131 -134 203 -42 79 -91 127 -159 156 -132 55
-293 -9 -355 -141 -60 -127 -7 -290 118 -360 124 -70 180 -105 209 -131 l33
-28 -36 -55 c-82 -126 -150 -290 -189 -449 l-18 -73 -77 4 c-69 4 -86 9 -147
45 -88 53 -131 66 -217 65 -190 0 -331 -124 -352 -310 -18 -161 58 -298 202
-364 61 -27 79 -31 155 -31 91 1 95 2 249 84 34 18 65 25 124 28 45 2 76 -1
73 -6 -3 -5 5 -49 18 -97 25 -94 34 -119 72 -204 12 -29 23 -55 23 -58 0 -2
27 -49 60 -104 33 -55 60 -103 60 -108 0 -10 -136 -99 -219 -143 -72 -37 -134
-106 -151 -167 -17 -61 -12 -152 11 -202 42 -93 143 -160 243 -161 118 -2 214
57 268 165 34 69 129 216 139 216 3 0 46 -24 95 -54 49 -29 121 -67 159 -84
104 -45 178 -69 299 -96 l28 -7 -3 -77 c-4 -70 -8 -84 -45 -147 -54 -91 -67
-134 -67 -220 2 -170 98 -297 258 -341 164 -45 335 27 408 172 64 126 56 251
-25 386 -35 59 -40 77 -45 147 l-6 79 39 11 c22 5 53 13 69 16 104 23 292 106
404 178 l70 46 54 -82 c30 -45 71 -111 90 -147 63 -115 153 -167 277 -158 205
15 314 226 216 416 -24 46 -65 80 -157 129 -81 44 -189 117 -189 130 0 3 15
26 33 52 85 119 158 300 202 495 l6 28 77 -4 c56 -2 88 -9 117 -26 136 -76
167 -87 255 -87 76 0 93 4 151 32 83 41 134 92 173 173 28 58 31 74 31 155 -1
83 -4 95 -34 153 -41 76 -104 135 -179 170 -47 21 -71 26 -137 25 -88 -1 -144
-18 -215 -63 -25 -16 -58 -34 -73 -39 -31 -12 -153 -19 -162 -9 -3 3 -17 48
-31 99 -40 153 -95 277 -179 409 l-44 69 47 33 c78 55 124 83 177 108 125 60
190 188 162 320 -12 55 -42 104 -94 151 -46 41 -91 59 -160 63 -124 7 -216
-52 -280 -178 -27 -54 -117 -191 -131 -200 -4 -2 -32 11 -62 31 -129 82 -306
155 -469 193 l-53 13 5 81 c4 72 9 89 47 152 54 94 70 148 66 232 -6 125 -95
257 -211 311 -72 34 -179 36 -262 6z"/>
</g>
</svg>
